<svg width="24" height="22" viewBox="0 0 24 22" fill="none" xmlns="http://www.w3.org/2000/svg">
<path d="M19.0202 21.1765C21.8559 21.1765 24 19.0064 24 16.3299C24 13.6535 21.8559 11.5557 19.366 11.5557C18.1902 11.5557 17.2911 11.9174 17.2219 11.9174C17.2911 6.85387 21.1643 3.74341 21.9251 3.09238C22.4092 2.65836 22.5475 1.935 22.1326 1.42865L21.0951 0.415936C20.611 -0.162756 20.0576 -0.0904208 19.5043 0.343596C17.7061 2.00733 13.2795 6.41985 13.2795 13.4365C13.2795 19.3681 16.5303 21.1765 19.0202 21.1765ZM5.67147 21.1765C8.5072 21.1765 10.6513 19.0064 10.6513 16.3299C10.6513 13.6535 8.5072 11.5557 6.01729 11.5557C4.8415 11.5557 4.01153 11.9174 3.8732 11.9174C3.94236 6.85387 7.81556 3.74341 8.57637 3.09238C9.12968 2.65836 9.19885 1.935 8.78386 1.42865L7.7464 0.415936C7.26225 -0.162756 6.7781 -0.0904208 6.22478 0.343596C4.42651 2.00733 0 6.41985 0 13.4365C0 19.3681 3.18156 21.1765 5.67147 21.1765Z" fill="black"/>
</svg>
